<svg width="300" height="84" viewBox="0 0 300 84" fill="none" xmlns="http://www.w3.org/2000/svg">
<path d="M110.43 18.28C112.71 18.28 114.67 18.54 116.31 19.06C117.97 19.58 119.27 20.13 120.21 20.71C121.17 21.29 121.74 21.67 121.92 21.85L119.28 26.08C118.98 25.82 118.45 25.45 117.69 24.97C116.93 24.47 115.98 24.03 114.84 23.65C113.7 23.25 112.4 23.05 110.94 23.05C108.68 23.05 106.89 23.51 105.57 24.43C104.27 25.33 103.62 26.61 103.62 28.27C103.62 29.39 103.96 30.38 104.64 31.24C105.34 32.08 106.32 32.85 107.58 33.55C108.84 34.25 110.31 34.97 111.99 35.71C113.37 36.29 114.72 36.95 116.04 37.69C117.38 38.43 118.59 39.3 119.67 40.3C120.77 41.3 121.64 42.46 122.28 43.78C122.94 45.1 123.27 46.62 123.27 48.34C123.27 50.04 122.92 51.57 122.22 52.93C121.54 54.29 120.57 55.45 119.31 56.41C118.07 57.35 116.62 58.07 114.96 58.57C113.3 59.07 111.51 59.32 109.59 59.32C107.17 59.32 104.98 59.02 103.02 58.42C101.08 57.82 99.5098 57.19 98.3098 56.53C97.1298 55.87 96.4498 55.46 96.2698 55.3L99.0598 50.89C99.2998 51.09 99.7398 51.39 100.38 51.79C101.02 52.17 101.81 52.57 102.75 52.99C103.69 53.41 104.75 53.77 105.93 54.07C107.11 54.35 108.37 54.49 109.71 54.49C112.39 54.49 114.42 53.89 115.8 52.69C117.18 51.49 117.87 49.95 117.87 48.07C117.87 46.63 117.43 45.39 116.55 44.35C115.67 43.31 114.5 42.38 113.04 41.56C111.58 40.74 109.97 39.95 108.21 39.19C106.41 38.37 104.76 37.47 103.26 36.49C101.76 35.51 100.55 34.34 99.6298 32.98C98.7298 31.6 98.2798 29.94 98.2798 28C98.2798 26.08 98.8198 24.39 99.8998 22.93C101 21.47 102.47 20.33 104.31 19.51C106.17 18.69 108.21 18.28 110.43 18.28ZM137.329 71.08H132.139V33.97H137.419V38.59C137.599 37.97 138.099 37.24 138.919 36.4C139.739 35.56 140.839 34.83 142.219 34.21C143.619 33.57 145.219 33.25 147.019 33.25C149.299 33.25 151.319 33.8 153.079 34.9C154.859 35.98 156.249 37.5 157.249 39.46C158.269 41.4 158.779 43.68 158.779 46.3C158.779 48.92 158.259 51.21 157.219 53.17C156.179 55.11 154.759 56.62 152.959 57.7C151.179 58.78 149.139 59.32 146.839 59.32C144.979 59.32 143.349 58.97 141.949 58.27C140.569 57.57 139.479 56.78 138.679 55.9C137.899 55.02 137.449 54.32 137.329 53.8V71.08ZM153.619 46.3C153.619 44.52 153.249 42.98 152.509 41.68C151.789 40.38 150.829 39.37 149.629 38.65C148.429 37.93 147.129 37.57 145.729 37.57C144.189 37.57 142.789 37.94 141.529 38.68C140.269 39.4 139.269 40.42 138.529 41.74C137.789 43.04 137.419 44.56 137.419 46.3C137.419 48.04 137.789 49.57 138.529 50.89C139.269 52.19 140.269 53.2 141.529 53.92C142.789 54.64 144.189 55 145.729 55C147.129 55 148.429 54.65 149.629 53.95C150.829 53.23 151.789 52.22 152.509 50.92C153.249 49.62 153.619 48.08 153.619 46.3ZM186.417 58.6V53.8C186.257 54.3 185.787 54.99 185.007 55.87C184.247 56.75 183.197 57.55 181.857 58.27C180.537 58.97 178.977 59.32 177.177 59.32C174.897 59.32 172.827 58.78 170.967 57.7C169.127 56.62 167.657 55.11 166.557 53.17C165.477 51.21 164.937 48.92 164.937 46.3C164.937 43.68 165.477 41.4 166.557 39.46C167.657 37.5 169.127 35.98 170.967 34.9C172.827 33.8 174.897 33.25 177.177 33.25C178.957 33.25 180.497 33.57 181.797 34.21C183.117 34.85 184.167 35.59 184.947 36.43C185.747 37.27 186.217 37.99 186.357 38.59V33.97H191.517V58.6H186.417ZM170.097 46.3C170.097 48.08 170.487 49.62 171.267 50.92C172.047 52.22 173.057 53.23 174.297 53.95C175.557 54.65 176.897 55 178.317 55C179.837 55 181.197 54.64 182.397 53.92C183.597 53.2 184.547 52.19 185.247 50.89C185.947 49.57 186.297 48.04 186.297 46.3C186.297 44.56 185.947 43.04 185.247 41.74C184.547 40.42 183.597 39.4 182.397 38.68C181.197 37.94 179.837 37.57 178.317 37.57C176.897 37.57 175.557 37.93 174.297 38.65C173.057 39.37 172.047 40.38 171.267 41.68C170.487 42.98 170.097 44.52 170.097 46.3ZM220.692 58.6V53.8C220.532 54.3 220.062 54.99 219.282 55.87C218.522 56.75 217.472 57.55 216.132 58.27C214.812 58.97 213.252 59.32 211.452 59.32C209.172 59.32 207.102 58.78 205.242 57.7C203.402 56.62 201.932 55.11 200.832 53.17C199.752 51.21 199.212 48.92 199.212 46.3C199.212 43.68 199.752 41.4 200.832 39.46C201.932 37.5 203.402 35.98 205.242 34.9C207.102 33.8 209.172 33.25 211.452 33.25C213.232 33.25 214.772 33.57 216.072 34.21C217.392 34.85 218.442 35.59 219.222 36.43C220.022 37.27 220.492 37.99 220.632 38.59V33.97H225.792V58.6H220.692ZM204.372 46.3C204.372 48.08 204.762 49.62 205.542 50.92C206.322 52.22 207.332 53.23 208.572 53.95C209.832 54.65 211.172 55 212.592 55C214.112 55 215.472 54.64 216.672 53.92C217.872 53.2 218.822 52.19 219.522 50.89C220.222 49.57 220.572 48.04 220.572 46.3C220.572 44.56 220.222 43.04 219.522 41.74C218.822 40.42 217.872 39.4 216.672 38.68C215.472 37.94 214.112 37.57 212.592 37.57C211.172 37.57 209.832 37.93 208.572 38.65C207.332 39.37 206.322 40.38 205.542 41.68C204.762 42.98 204.372 44.52 204.372 46.3ZM240.297 58.6H235.107V33.97H240.297V38.23H240.147C240.247 37.71 240.617 37.06 241.257 36.28C241.897 35.5 242.777 34.8 243.897 34.18C245.017 33.56 246.357 33.25 247.917 33.25C249.057 33.25 250.057 33.41 250.917 33.73C251.797 34.03 252.417 34.33 252.777 34.63L250.647 38.95C250.367 38.67 249.877 38.39 249.177 38.11C248.477 37.81 247.607 37.66 246.567 37.66C245.247 37.66 244.117 38.07 243.177 38.89C242.237 39.71 241.517 40.7 241.017 41.86C240.537 43 240.297 44.06 240.297 45.04V58.6ZM277.816 58.6V53.8C277.656 54.3 277.186 54.99 276.406 55.87C275.646 56.75 274.596 57.55 273.256 58.27C271.936 58.97 270.376 59.32 268.576 59.32C266.296 59.32 264.226 58.78 262.366 57.7C260.526 56.62 259.056 55.11 257.956 53.17C256.876 51.21 256.336 48.92 256.336 46.3C256.336 43.68 256.876 41.4 257.956 39.46C259.056 37.5 260.526 35.98 262.366 34.9C264.226 33.8 266.296 33.25 268.576 33.25C270.356 33.25 271.896 33.57 273.196 34.21C274.516 34.85 275.566 35.59 276.346 36.43C277.146 37.27 277.616 37.99 277.756 38.59V33.97H282.916V58.6H277.816ZM261.496 46.3C261.496 48.08 261.886 49.62 262.666 50.92C263.446 52.22 264.456 53.23 265.696 53.95C266.956 54.65 268.296 55 269.716 55C271.236 55 272.596 54.64 273.796 53.92C274.996 53.2 275.946 52.19 276.646 50.89C277.346 49.57 277.696 48.04 277.696 46.3C277.696 44.56 277.346 43.04 276.646 41.74C275.946 40.42 274.996 39.4 273.796 38.68C272.596 37.94 271.236 37.57 269.716 37.57C268.296 37.57 266.956 37.93 265.696 38.65C264.456 39.37 263.446 40.38 262.666 41.68C261.886 42.98 261.496 44.52 261.496 46.3Z" fill="#232528"/>
<circle cx="63.1501" cy="13.05" r="10.05" fill="#F6AA1C"/>
<circle cx="43.05" cy="10.05" r="10.05" fill="#F6AA1C"/>
<circle cx="22.9499" cy="13.05" r="10.05" fill="#F6AA1C"/>
<path d="M82.7101 14.3627C82.9207 11.4661 80.6275 9 77.7233 9H6.97719C3.55293 9 1.14194 12.3644 2.24245 15.6069L15.6485 55.1069C16.337 57.1354 18.2411 58.5 20.3832 58.5H74.8505C77.4712 58.5 79.6473 56.4765 79.8374 53.8627L82.7101 14.3627Z" fill="#232528"/>
<rect x="37.1304" y="41.8325" width="31.1586" height="7.54783" rx="3" transform="rotate(-45 37.1304 41.8325)" fill="#F6AA1C"/>
<rect x="33.8369" y="30.0285" width="18.2388" height="7.54783" rx="3" transform="rotate(45 33.8369 30.0285)" fill="#F6AA1C"/>
</svg>
